<svg xmlns="http://www.w3.org/2000/svg" xmlns:xlink="http://www.w3.org/1999/xlink" width="1920" zoomAndPan="magnify" viewBox="0 0 1440 449.999984" height="600" preserveAspectRatio="xMidYMid meet" version="1.0"><defs><g/><clipPath id="db6e9e9f4c"><path d="M 260 304 L 396 304 L 396 441 L 260 441 Z M 260 304 " clip-rule="nonzero"/></clipPath><clipPath id="918c900bc2"><path d="M 250.59375 -50.15625 L 529.335938 185.875 L 305.90625 449.734375 L 27.164062 213.703125 Z M 250.59375 -50.15625 " clip-rule="nonzero"/></clipPath><clipPath id="73bdc14d9f"><path d="M 250.59375 -50.15625 L 529.335938 185.875 L 305.90625 449.734375 L 27.164062 213.703125 Z M 250.59375 -50.15625 " clip-rule="nonzero"/></clipPath><clipPath id="ca2ab2258c"><path d="M 250.59375 -50.15625 L 529.335938 185.875 L 305.90625 449.734375 L 27.164062 213.703125 Z M 250.59375 -50.15625 " clip-rule="nonzero"/></clipPath><clipPath id="46800ef125"><path d="M 109 9 L 362 9 L 362 345 L 109 345 Z M 109 9 " clip-rule="nonzero"/></clipPath><clipPath id="e5945b2b3b"><path d="M 250.59375 -50.15625 L 529.335938 185.875 L 305.90625 449.734375 L 27.164062 213.703125 Z M 250.59375 -50.15625 " clip-rule="nonzero"/></clipPath><clipPath id="66fc804b32"><path d="M 250.59375 -50.15625 L 529.335938 185.875 L 305.90625 449.734375 L 27.164062 213.703125 Z M 250.59375 -50.15625 " clip-rule="nonzero"/></clipPath><clipPath id="c022130a7b"><path d="M 250.59375 -50.15625 L 529.335938 185.875 L 305.90625 449.734375 L 27.164062 213.703125 Z M 250.59375 -50.15625 " clip-rule="nonzero"/></clipPath><clipPath id="22cc5b9a7d"><path d="M 190 46 L 362 46 L 362 318 L 190 318 Z M 190 46 " clip-rule="nonzero"/></clipPath><clipPath id="bc6e067e1e"><path d="M 250.59375 -50.15625 L 529.335938 185.875 L 305.90625 449.734375 L 27.164062 213.703125 Z M 250.59375 -50.15625 " clip-rule="nonzero"/></clipPath><clipPath id="0204b9bec4"><path d="M 250.59375 -50.15625 L 529.335938 185.875 L 305.90625 449.734375 L 27.164062 213.703125 Z M 250.59375 -50.15625 " clip-rule="nonzero"/></clipPath><clipPath id="c505b99b69"><path d="M 250.59375 -50.15625 L 529.335938 185.875 L 305.90625 449.734375 L 27.164062 213.703125 Z M 250.59375 -50.15625 " clip-rule="nonzero"/></clipPath><clipPath id="130feac16e"><path d="M 236 12 L 296 12 L 296 161 L 236 161 Z M 236 12 " clip-rule="nonzero"/></clipPath><clipPath id="1858f20618"><path d="M 250.59375 -50.15625 L 529.335938 185.875 L 305.90625 449.734375 L 27.164062 213.703125 Z M 250.59375 -50.15625 " clip-rule="nonzero"/></clipPath><clipPath id="4083a2a298"><path d="M 250.59375 -50.15625 L 529.335938 185.875 L 305.90625 449.734375 L 27.164062 213.703125 Z M 250.59375 -50.15625 " clip-rule="nonzero"/></clipPath><clipPath id="dff5e90d03"><path d="M 250.59375 -50.15625 L 529.335938 185.875 L 305.90625 449.734375 L 27.164062 213.703125 Z M 250.59375 -50.15625 " clip-rule="nonzero"/></clipPath><clipPath id="8880a8c4fe"><path d="M 135 74 L 262 74 L 262 194 L 135 194 Z M 135 74 " clip-rule="nonzero"/></clipPath><clipPath id="d6cdf46cef"><path d="M 250.59375 -50.15625 L 529.335938 185.875 L 305.90625 449.734375 L 27.164062 213.703125 Z M 250.59375 -50.15625 " clip-rule="nonzero"/></clipPath><clipPath id="124c46a6a4"><path d="M 250.59375 -50.15625 L 529.335938 185.875 L 305.90625 449.734375 L 27.164062 213.703125 Z M 250.59375 -50.15625 " clip-rule="nonzero"/></clipPath><clipPath id="b3a0729659"><path d="M 250.59375 -50.15625 L 529.335938 185.875 L 305.90625 449.734375 L 27.164062 213.703125 Z M 250.59375 -50.15625 " clip-rule="nonzero"/></clipPath><clipPath id="ec29923458"><path d="M 125 228 L 251 228 L 251 258 L 125 258 Z M 125 228 " clip-rule="nonzero"/></clipPath><clipPath id="0d83dc588f"><path d="M 250.59375 -50.15625 L 529.335938 185.875 L 305.90625 449.734375 L 27.164062 213.703125 Z M 250.59375 -50.15625 " clip-rule="nonzero"/></clipPath><clipPath id="964992eb43"><path d="M 250.59375 -50.15625 L 529.335938 185.875 L 305.90625 449.734375 L 27.164062 213.703125 Z M 250.59375 -50.15625 " clip-rule="nonzero"/></clipPath><clipPath id="20ed405073"><path d="M 250.59375 -50.15625 L 529.335938 185.875 L 305.90625 449.734375 L 27.164062 213.703125 Z M 250.59375 -50.15625 " clip-rule="nonzero"/></clipPath><clipPath id="00525909fb"><path d="M 218 274 L 274 274 L 274 332 L 218 332 Z M 218 274 " clip-rule="nonzero"/></clipPath><clipPath id="f9265132ab"><path d="M 250.59375 -50.15625 L 529.335938 185.875 L 305.90625 449.734375 L 27.164062 213.703125 Z M 250.59375 -50.15625 " clip-rule="nonzero"/></clipPath><clipPath id="1bba59dc59"><path d="M 250.59375 -50.15625 L 529.335938 185.875 L 305.90625 449.734375 L 27.164062 213.703125 Z M 250.59375 -50.15625 " clip-rule="nonzero"/></clipPath><clipPath id="f0cda47170"><path d="M 250.59375 -50.15625 L 529.335938 185.875 L 305.90625 449.734375 L 27.164062 213.703125 Z M 250.59375 -50.15625 " clip-rule="nonzero"/></clipPath><clipPath id="f3f9390c4e"><path d="M 1170 107.230469 L 1332 107.230469 L 1332 287 L 1170 287 Z M 1170 107.230469 " clip-rule="nonzero"/></clipPath></defs><g clip-path="url(#db6e9e9f4c)"><g clip-path="url(#918c900bc2)"><g clip-path="url(#73bdc14d9f)"><g clip-path="url(#ca2ab2258c)"><path fill="#f46c17" d="M 262.324219 339.460938 C 262.324219 339.460938 246.09375 399.089844 309.746094 440.074219 C 309.746094 440.074219 339.457031 384.933594 296.320312 341.074219 C 296.320312 341.074219 345.105469 378.902344 395.15625 343.980469 C 395.15625 343.980469 379.507812 300.875 295.335938 304.347656 C 295.335938 304.347656 263.503906 311.027344 262.324219 339.460938 " fill-opacity="1" fill-rule="nonzero"/></g></g></g></g><g clip-path="url(#46800ef125)"><g clip-path="url(#e5945b2b3b)"><g clip-path="url(#66fc804b32)"><g clip-path="url(#c022130a7b)"><path fill="#f46c17" d="M 250.148438 206.382812 C 249.121094 210.058594 248.417969 213.679688 248.089844 217.3125 L 248.074219 217.371094 C 247.96875 218.480469 247.929688 219.542969 247.882812 220.660156 C 247.773438 221.765625 247.738281 222.828125 247.820312 223.914062 C 247.828125 225.359375 247.898438 226.820312 248.027344 228.289062 C 248.054688 229.050781 248.15625 229.761719 248.257812 230.472656 C 248.265625 230.726562 248.324219 231.050781 248.382812 231.378906 C 248.492188 232.34375 248.613281 233.25 248.792969 234.167969 C 248.964844 235.148438 249.132812 236.125 249.378906 237.054688 C 249.546875 238.03125 249.777344 239.023438 250.082031 239.96875 C 250.484375 241.625 250.964844 243.234375 251.511719 244.792969 C 251.882812 246 252.328125 247.167969 252.761719 248.386719 C 253.472656 250.359375 254.320312 252.296875 255.167969 254.238281 C 255.863281 255.703125 256.574219 257.109375 257.328125 258.589844 C 260.363281 264.449219 263.90625 269.972656 267.5625 274.957031 C 268.535156 276.292969 269.523438 277.570312 270.511719 278.847656 C 271.496094 280.125 272.496094 281.34375 273.433594 282.546875 C 275.804688 285.308594 278.089844 287.867188 280.292969 290.21875 C 281.054688 291.070312 281.769531 291.851562 282.511719 292.511719 C 287.097656 297.253906 291.015625 300.722656 293.246094 302.644531 C 293.519531 302.824219 293.722656 303.058594 293.9375 303.226562 C 294.261719 303.484375 294.585938 303.742188 294.800781 303.914062 C 294.964844 304.011719 295.0625 304.15625 295.183594 304.183594 C 295.289062 304.265625 295.335938 304.339844 295.335938 304.339844 C 295.660156 309.058594 294.476562 313.453125 292.40625 317.597656 C 284.359375 333.664062 262.460938 344.527344 262.460938 344.527344 C 262.460938 344.527344 249.039062 340.546875 230.144531 331.261719 C 226.5625 329.5 222.761719 327.558594 218.820312 325.40625 C 193.167969 311.230469 161.417969 288.472656 138.621094 254.554688 C 133.808594 247.316406 129.347656 239.585938 125.496094 231.355469 C 118.167969 215.796875 112.816406 198.332031 110.339844 178.839844 C 105.90625 143.355469 116.46875 112.4375 135.285156 87.035156 C 138.535156 82.640625 142.078125 78.367188 145.839844 74.265625 L 145.851562 74.207031 C 171.722656 46.035156 207.921875 26.085938 242.378906 16.441406 L 242.441406 16.457031 C 248.253906 14.800781 253.949219 13.433594 259.636719 12.378906 C 286.183594 7.46875 310.476562 9.042969 326.578125 18.175781 C 340.988281 26.382812 349.558594 36.054688 354.605469 46.671875 C 363.074219 64.546875 361.539062 84.886719 360.453125 104.566406 C 358.628906 138.15625 332.859375 144.742188 323.011719 145.855469 C 321.984375 145.953125 320.949219 146.109375 319.96875 146.277344 C 318.988281 146.445312 317.9375 146.664062 317.023438 146.84375 C 316.441406 146.910156 315.851562 147.035156 315.316406 147.175781 C 314.074219 147.414062 312.949219 147.675781 311.753906 147.988281 C 311.695312 147.972656 311.679688 148.035156 311.621094 148.023438 C 310.023438 148.4375 308.550781 148.878906 307.0625 149.378906 C 305.042969 150.015625 303.070312 150.730469 301.203125 151.523438 C 299.148438 152.34375 297.121094 153.296875 295.21875 154.277344 C 295.148438 154.320312 295.074219 154.371094 295.015625 154.355469 C 291.335938 156.277344 288.003906 158.394531 284.917969 160.503906 C 284.757812 160.65625 284.617188 160.753906 284.410156 160.835938 C 283.128906 161.820312 281.871094 162.746094 280.667969 163.683594 C 276.75 166.746094 273.449219 169.875 270.695312 172.808594 C 269.984375 173.476562 269.398438 174.167969 268.828125 174.800781 C 266.109375 177.863281 264.027344 180.566406 262.605469 182.523438 C 262.253906 183.011719 261.957031 183.511719 261.6875 183.898438 C 260.625 185.367188 260.121094 186.265625 260.121094 186.265625 C 259.140625 187.625 258.222656 189.003906 257.363281 190.390625 C 256.6875 191.503906 256.011719 192.617188 255.410156 193.679688 C 255.394531 193.742188 255.324219 193.789062 255.308594 193.847656 C 255.300781 193.910156 255.210938 194.019531 255.199219 194.078125 C 254.472656 195.429688 253.820312 196.738281 253.230469 198.054688 C 251.945312 200.859375 250.929688 203.59375 250.148438 206.382812 " fill-opacity="1" fill-rule="nonzero"/></g></g></g></g><g clip-path="url(#22cc5b9a7d)"><g clip-path="url(#bc6e067e1e)"><g clip-path="url(#0204b9bec4)"><g clip-path="url(#c505b99b69)"><path fill="#f79446" d="M 250.144531 206.382812 C 249.058594 210.046875 248.414062 213.675781 248.085938 217.3125 L 248.074219 217.371094 C 247.90625 218.464844 247.859375 219.589844 247.882812 220.660156 C 247.773438 221.765625 247.738281 222.828125 247.820312 223.914062 C 247.828125 225.359375 247.898438 226.820312 248.027344 228.292969 C 248.054688 229.050781 248.15625 229.761719 248.253906 230.472656 C 248.265625 230.726562 248.324219 231.050781 248.378906 231.378906 C 248.429688 232.332031 248.613281 233.25 248.792969 234.171875 C 248.964844 235.148438 249.132812 236.125 249.375 237.054688 C 249.546875 238.035156 249.777344 239.023438 250.082031 239.96875 C 250.484375 241.625 250.964844 243.234375 251.511719 244.792969 C 251.886719 246.003906 252.257812 247.214844 252.761719 248.386719 C 253.472656 250.359375 254.320312 252.300781 255.167969 254.238281 C 255.863281 255.703125 256.570312 257.109375 257.328125 258.589844 C 260.359375 264.445312 263.902344 269.972656 267.558594 274.957031 C 268.535156 276.292969 269.507812 277.628906 270.507812 278.847656 C 271.492188 280.125 272.492188 281.34375 273.433594 282.546875 C 275.800781 285.308594 278.085938 287.867188 280.292969 290.21875 C 281.007812 291 281.78125 291.792969 282.507812 292.511719 C 287.097656 297.253906 291.011719 300.722656 293.246094 302.640625 C 293.519531 302.824219 293.722656 303.054688 293.9375 303.226562 C 294.261719 303.484375 294.582031 303.742188 294.800781 303.914062 C 294.964844 304.011719 295.058594 304.15625 295.179688 304.183594 C 295.289062 304.265625 295.335938 304.339844 295.335938 304.339844 C 295.660156 309.058594 294.476562 313.453125 292.40625 317.597656 C 282.917969 312.257812 272.933594 305.992188 263.0625 298.621094 C 260.40625 296.613281 257.75 294.605469 255.136719 292.417969 C 241.023438 281.003906 227.578125 267.347656 216.59375 251.261719 C 214.007812 247.445312 211.570312 243.539062 209.296875 239.414062 C 201.304688 225.21875 195.296875 209.371094 192.273438 191.585938 C 191.148438 185.003906 190.679688 178.625 190.855469 172.441406 C 191.089844 163.007812 192.683594 153.988281 195.550781 145.488281 C 202.980469 122.824219 218.800781 103.570312 238.808594 88.289062 C 245.554688 83.125 252.765625 78.441406 260.234375 74.308594 C 290.070312 57.40625 324.816406 47.886719 354.601562 46.671875 C 363.070312 64.550781 361.539062 84.886719 360.453125 104.566406 C 358.628906 138.152344 332.855469 144.742188 323.011719 145.859375 C 321.984375 145.953125 320.945312 146.109375 319.96875 146.277344 C 318.988281 146.445312 318.011719 146.617188 317.019531 146.84375 C 316.441406 146.910156 315.851562 147.035156 315.316406 147.171875 C 314.074219 147.414062 312.949219 147.675781 311.753906 147.988281 C 311.695312 147.976562 311.679688 148.035156 311.621094 148.023438 C 310.085938 148.449219 308.550781 148.878906 307.0625 149.378906 C 305.042969 150.015625 303.066406 150.730469 301.203125 151.527344 C 299.144531 152.34375 297.125 153.296875 295.21875 154.277344 C 295.144531 154.320312 295.070312 154.371094 295.011719 154.355469 C 291.339844 156.277344 288 158.398438 284.917969 160.507812 C 284.757812 160.660156 284.613281 160.753906 284.410156 160.835938 C 283.128906 161.820312 281.867188 162.746094 280.667969 163.683594 C 276.746094 166.746094 273.449219 169.878906 270.691406 172.808594 C 269.984375 173.472656 269.398438 174.167969 268.828125 174.800781 C 266.105469 177.863281 264.027344 180.566406 262.605469 182.523438 C 262.25 183.015625 261.910156 183.441406 261.6875 183.898438 C 260.625 185.367188 260.121094 186.265625 260.121094 186.265625 C 259.140625 187.628906 258.222656 189 257.363281 190.390625 C 256.683594 191.503906 256.011719 192.617188 255.410156 193.679688 C 255.394531 193.742188 255.324219 193.789062 255.308594 193.851562 C 255.296875 193.910156 255.214844 194.019531 255.203125 194.078125 C 254.472656 195.429688 253.820312 196.738281 253.230469 198.054688 C 251.945312 200.859375 250.925781 203.59375 250.144531 206.382812 " fill-opacity="1" fill-rule="nonzero"/></g></g></g></g><g clip-path="url(#130feac16e)"><g clip-path="url(#1858f20618)"><g clip-path="url(#4083a2a298)"><g clip-path="url(#dff5e90d03)"><path fill="#ffffff" d="M 295.011719 154.359375 C 291.339844 156.277344 288 158.394531 284.917969 160.503906 C 256.71875 139.066406 243.78125 112.894531 238.808594 88.289062 C 232.804688 58.75 238.226562 31.324219 242.378906 16.441406 L 242.4375 16.457031 C 248.257812 14.800781 253.949219 13.433594 259.636719 12.382812 C 255.714844 34.785156 256.691406 55.71875 260.238281 74.308594 C 267.617188 113.371094 286.296875 142.394531 295.011719 154.359375 " fill-opacity="1" fill-rule="nonzero"/></g></g></g></g><g clip-path="url(#8880a8c4fe)"><g clip-path="url(#d6cdf46cef)"><g clip-path="url(#124c46a6a4)"><g clip-path="url(#b3a0729659)"><path fill="#ffffff" d="M 261.691406 183.898438 C 260.625 185.367188 260.121094 186.265625 260.121094 186.265625 C 259.140625 187.625 258.222656 189.003906 257.367188 190.386719 C 256.6875 191.503906 256.011719 192.617188 255.410156 193.679688 C 255.398438 193.742188 255.324219 193.789062 255.3125 193.847656 C 228.449219 192.542969 207.363281 184.109375 190.859375 172.441406 C 148.523438 142.664062 136.363281 92.039062 135.285156 87.035156 C 138.539062 82.640625 142.082031 78.367188 145.839844 74.265625 C 146.015625 74.617188 146.179688 75.03125 146.296875 75.371094 C 157.894531 106.09375 176.449219 128.875 195.550781 145.492188 C 222.558594 168.996094 250.621094 180.101562 261.691406 183.898438 " fill-opacity="1" fill-rule="nonzero"/></g></g></g></g><g clip-path="url(#ec29923458)"><g clip-path="url(#0d83dc588f)"><g clip-path="url(#964992eb43)"><g clip-path="url(#20ed405073)"><path fill="#ffffff" d="M 250.082031 239.96875 C 242.097656 243.550781 230.640625 247.835938 216.59375 251.261719 C 195.527344 256.398438 168.628906 259.417969 138.621094 254.554688 C 133.804688 247.316406 129.34375 239.585938 125.496094 231.355469 C 143.601562 237.839844 173.875 245.019531 209.296875 239.414062 C 221.648438 237.449219 234.707031 233.941406 248.027344 228.289062 C 248.054688 229.050781 248.15625 229.761719 248.253906 230.472656 C 248.265625 230.726562 248.324219 231.054688 248.378906 231.378906 C 248.488281 232.34375 248.613281 233.25 248.792969 234.167969 C 248.964844 235.148438 249.132812 236.125 249.378906 237.058594 C 249.546875 238.03125 249.777344 239.023438 250.082031 239.96875 " fill-opacity="1" fill-rule="nonzero"/></g></g></g></g><g clip-path="url(#00525909fb)"><g clip-path="url(#f9265132ab)"><g clip-path="url(#1bba59dc59)"><g clip-path="url(#f0cda47170)"><path fill="#ffffff" d="M 273.433594 282.546875 C 270.449219 287.753906 267.039062 293.183594 263.0625 298.617188 C 254.617188 310.332031 243.800781 321.976562 230.148438 331.261719 C 226.5625 329.496094 222.761719 327.558594 218.820312 325.40625 C 230.566406 317.410156 243.519531 306.65625 255.140625 292.414062 C 259.535156 287.070312 263.710938 281.296875 267.5625 274.957031 C 268.539062 276.292969 269.523438 277.570312 270.511719 278.847656 C 271.496094 280.125 272.496094 281.34375 273.433594 282.546875 " fill-opacity="1" fill-rule="nonzero"/></g></g></g></g><path fill="#35e631" d="M 1223.546875 145.554688 C 1209.128906 144.878906 1191.980469 150.71875 1179.703125 175.902344 C 1156.03125 224.472656 1212.3125 306.664062 1251.164062 276.648438 C 1290.015625 306.664062 1346.296875 224.472656 1322.621094 175.902344 C 1297.273438 123.902344 1251.164062 154.375 1251.164062 154.375 Z M 1223.546875 145.554688 " fill-opacity="1" fill-rule="nonzero"/><path fill="#f1f0f0" d="M 1250.667969 153.832031 C 1250.667969 129.847656 1231.257812 110.433594 1207.269531 110.433594 C 1207.269531 134.421875 1226.679688 153.832031 1250.667969 153.832031 Z M 1250.667969 153.832031 " fill-opacity="1" fill-rule="nonzero"/><path fill="#ffffff" d="M 1249.308594 155.664062 C 1248.492188 155.664062 1247.675781 155.351562 1247.054688 154.730469 L 1229.824219 137.5 C 1229.203125 136.878906 1228.890625 136.0625 1228.890625 135.246094 C 1228.890625 134.433594 1229.203125 133.617188 1229.824219 132.992188 C 1231.070312 131.75 1233.089844 131.746094 1234.335938 132.992188 L 1251.5625 150.21875 C 1252.1875 150.84375 1252.496094 151.660156 1252.496094 152.476562 C 1252.496094 153.289062 1252.1875 154.105469 1251.5625 154.730469 C 1250.941406 155.351562 1250.125 155.664062 1249.308594 155.664062 Z M 1249.308594 155.664062 " fill-opacity="1" fill-rule="nonzero"/><path fill="#ffffff" d="M 1281.894531 258.132812 C 1280.96875 258.132812 1280.050781 257.730469 1279.421875 256.957031 C 1278.308594 255.59375 1278.515625 253.582031 1279.882812 252.472656 C 1296.574219 238.882812 1307.976562 208.789062 1298.257812 188.847656 C 1297.484375 187.265625 1298.144531 185.355469 1299.726562 184.585938 C 1301.308594 183.8125 1303.21875 184.472656 1303.988281 186.054688 C 1315.304688 209.265625 1302.488281 242.292969 1283.90625 257.417969 C 1283.316406 257.898438 1282.601562 258.132812 1281.894531 258.132812 Z M 1281.894531 258.132812 " fill-opacity="1" fill-rule="nonzero"/><g clip-path="url(#f3f9390c4e)"><path fill="#35e631" d="M 1325.488281 174.503906 C 1317.394531 157.898438 1306.363281 147.585938 1292.699219 143.855469 C 1277.34375 139.664062 1262.726562 144.894531 1255.019531 148.617188 C 1256.375 142.351562 1258.902344 137.074219 1262.574219 132.976562 C 1268.085938 126.828125 1276.074219 123.441406 1285.078125 123.441406 C 1286.839844 123.441406 1288.265625 122.015625 1288.265625 120.253906 C 1288.265625 118.492188 1286.839844 117.066406 1285.078125 117.066406 C 1274.238281 117.066406 1264.5625 121.207031 1257.824219 128.722656 C 1255.1875 131.667969 1253.046875 135.082031 1251.410156 138.925781 C 1245.179688 120.527344 1227.746094 107.246094 1207.269531 107.246094 C 1205.507812 107.246094 1204.078125 108.675781 1204.078125 110.433594 C 1204.078125 122.863281 1208.972656 134.171875 1216.933594 142.535156 C 1203.953125 143.804688 1188.28125 151.023438 1176.835938 174.503906 C 1160.9375 207.128906 1179.023438 253.605469 1205.199219 274.910156 C 1214.457031 282.449219 1224.003906 286.25 1233.058594 286.25 C 1239.429688 286.25 1245.554688 284.367188 1251.164062 280.578125 C 1256.773438 284.371094 1262.894531 286.25 1269.265625 286.25 C 1278.320312 286.25 1287.871094 282.449219 1297.128906 274.910156 C 1323.304688 253.605469 1341.390625 207.128906 1325.488281 174.503906 Z M 1247.34375 150.507812 C 1227.816406 148.902344 1212.199219 133.285156 1210.59375 113.761719 C 1230.121094 115.363281 1245.738281 130.980469 1247.34375 150.507812 Z M 1320.886719 227.28125 C 1315.453125 244.269531 1305.066406 260.226562 1293.101562 269.96875 C 1284.851562 276.683594 1268.683594 286.15625 1253.113281 274.125 C 1251.964844 273.238281 1250.363281 273.238281 1249.214844 274.121094 C 1233.644531 286.15625 1217.476562 276.683594 1209.222656 269.964844 C 1197.257812 260.226562 1186.871094 244.269531 1181.4375 227.277344 C 1175.503906 208.71875 1175.90625 190.96875 1182.566406 177.300781 C 1192.203125 157.53125 1205.945312 147.925781 1223.398438 148.738281 C 1223.640625 148.75 1223.882812 148.730469 1224.113281 148.6875 C 1230.855469 153.382812 1238.886719 156.339844 1247.5625 156.914062 C 1247.378906 160.78125 1247.523438 164.871094 1247.996094 169.160156 C 1248 169.226562 1248.015625 169.289062 1248.023438 169.351562 C 1244.5 168.734375 1241.121094 167.074219 1238.402344 164.355469 C 1237.160156 163.109375 1235.140625 163.109375 1233.894531 164.355469 C 1232.648438 165.601562 1232.648438 167.617188 1233.894531 168.863281 C 1238.65625 173.625 1244.910156 176.003906 1251.164062 176.003906 C 1257.417969 176.003906 1263.667969 173.625 1268.433594 168.863281 C 1269.675781 167.617188 1269.675781 165.601562 1268.433594 164.355469 C 1267.1875 163.109375 1265.167969 163.109375 1263.921875 164.355469 C 1261.203125 167.074219 1257.828125 168.734375 1254.304688 169.351562 C 1254.351562 169.066406 1254.367188 168.765625 1254.332031 168.460938 C 1253.863281 164.191406 1253.746094 160.160156 1253.972656 156.394531 C 1258.1875 153.933594 1274.410156 145.46875 1291.019531 150.007812 C 1302.832031 153.234375 1312.5 162.414062 1319.757812 177.296875 C 1326.421875 190.96875 1326.820312 208.71875 1320.886719 227.28125 Z M 1320.886719 227.28125 " fill-opacity="1" fill-rule="nonzero"/></g><path stroke-linecap="butt" transform="matrix(0.75, 0, 0, 0.75, 268.577789, 61.970546)" fill="none" stroke-linejoin="miter" d="M 220.333798 249.601791 L 130.589 249.601791 L 113.463998 290.997628 L 67.615036 290.997628 L 153.786918 97.685112 L 197.94838 97.685112 L 284.391095 290.997628 L 237.464008 290.997628 Z M 206.245256 215.617413 L 175.63067 141.580949 L 144.953584 215.617413 Z M 328.615057 97.685112 L 373.385894 97.685112 L 373.385894 254.523666 L 470.281734 254.523666 L 470.281734 290.997628 L 328.615057 290.997628 Z M 646.755706 249.601791 L 557.010908 249.601791 L 539.885907 290.997628 L 494.036945 290.997628 L 580.208826 97.685112 L 624.370288 97.685112 L 710.813003 290.997628 L 663.885916 290.997628 Z M 632.667164 215.617413 L 602.052578 141.580949 L 571.375492 215.617413 Z M 932.370312 97.685112 L 932.370312 290.997628 L 895.620309 290.997628 L 799.203635 173.612202 L 799.203635 290.997628 L 755.036965 290.997628 L 755.036965 97.685112 L 792.052593 97.685112 L 888.135934 215.075747 L 888.135934 97.685112 Z M 1132.823453 191.273661 L 1173.750539 191.273661 L 1173.750539 269.758043 C 1163.234913 277.669501 1151.073454 283.742419 1137.276578 287.966377 C 1123.474494 292.190336 1109.563034 294.304919 1095.536991 294.304919 C 1075.490115 294.304919 1057.443238 290.034086 1041.391154 281.492418 C 1025.391153 272.909084 1012.828652 261.018458 1003.703651 245.825749 C 994.620317 230.633039 990.083858 213.461163 990.083858 194.31012 C 990.083858 175.159077 994.620317 158.013242 1003.703651 142.862199 C 1012.828652 127.66949 1025.479694 115.804906 1041.661987 107.263238 C 1057.891155 98.674696 1076.141157 94.383029 1096.411992 94.383029 C 1113.35991 94.383029 1128.734911 97.237196 1142.531787 102.94553 C 1156.333871 108.653863 1167.93283 116.924697 1177.323456 127.758031 L 1148.599496 154.258034 C 1134.80262 139.737199 1118.125535 132.48199 1098.57345 132.48199 C 1086.255741 132.48199 1075.307823 135.065324 1065.734906 140.231991 C 1056.161988 145.356991 1048.698446 152.617408 1043.349487 162.013242 C 1038.000529 171.409077 1035.323445 182.174702 1035.323445 194.31012 C 1035.323445 206.310121 1038.000529 217.008038 1043.349487 226.403872 C 1048.698446 235.752832 1056.115113 243.060124 1065.599489 248.320541 C 1075.083865 253.57575 1085.896366 256.205958 1098.031783 256.205958 C 1110.932826 256.205958 1122.531785 253.445541 1132.823453 247.914291 Z M 1132.823453 191.273661 " stroke="#35e631" stroke-width="20.713724" stroke-opacity="1" stroke-miterlimit="4"/><g fill="#35e631" fill-opacity="1"><g transform="translate(321.159816, 280.220529)"><g><path d="M 112.6875 -31.078125 L 45.359375 -31.078125 L 32.515625 0 L -1.859375 0 L 62.765625 -145 L 95.90625 -145 L 160.734375 0 L 125.53125 0 Z M 102.125 -56.546875 L 79.125 -112.0625 L 56.140625 -56.546875 Z M 102.125 -56.546875 "/></g></g></g><g fill="#35e631" fill-opacity="1"><g transform="translate(497.84586, 280.220529)"><g><path d="M 17.1875 -145 L 50.75 -145 L 50.75 -27.34375 L 123.453125 -27.34375 L 123.453125 0 L 17.1875 0 Z M 17.1875 -145 "/></g></g></g><g fill="#35e631" fill-opacity="1"><g transform="translate(640.976111, 280.220529)"><g><path d="M 112.6875 -31.078125 L 45.359375 -31.078125 L 32.515625 0 L -1.859375 0 L 62.765625 -145 L 95.90625 -145 L 160.734375 0 L 125.53125 0 Z M 102.125 -56.546875 L 79.125 -112.0625 L 56.140625 -56.546875 Z M 102.125 -56.546875 "/></g></g></g><g fill="#35e631" fill-opacity="1"><g transform="translate(817.662163, 280.220529)"><g><path d="M 150.171875 -145 L 150.171875 0 L 122.625 0 L 50.328125 -88.03125 L 50.328125 0 L 17.1875 0 L 17.1875 -145 L 44.953125 -145 L 117.03125 -56.96875 L 117.03125 -145 Z M 150.171875 -145 "/></g></g></g><g fill="#35e631" fill-opacity="1"><g transform="translate(1003.047876, 280.220529)"><g><path d="M 115.171875 -74.78125 L 145.828125 -74.78125 L 145.828125 -15.953125 C 137.953125 -10.015625 128.835938 -5.457031 118.484375 -2.28125 C 108.128906 0.894531 97.703125 2.484375 87.203125 2.484375 C 72.148438 2.484375 58.613281 -0.722656 46.59375 -7.140625 C 34.582031 -13.566406 25.160156 -22.472656 18.328125 -33.859375 C 11.492188 -45.253906 8.078125 -58.132812 8.078125 -72.5 C 8.078125 -86.863281 11.492188 -99.738281 18.328125 -111.125 C 25.160156 -122.519531 34.65625 -131.425781 46.8125 -137.84375 C 58.96875 -144.269531 72.640625 -147.484375 87.828125 -147.484375 C 100.535156 -147.484375 112.066406 -145.34375 122.421875 -141.0625 C 132.773438 -136.78125 141.472656 -130.566406 148.515625 -122.421875 L 126.984375 -102.53125 C 116.617188 -113.445312 104.117188 -118.90625 89.484375 -118.90625 C 80.234375 -118.90625 72.015625 -116.96875 64.828125 -113.09375 C 57.648438 -109.226562 52.054688 -103.773438 48.046875 -96.734375 C 44.046875 -89.691406 42.046875 -81.613281 42.046875 -72.5 C 42.046875 -63.519531 44.046875 -55.507812 48.046875 -48.46875 C 52.054688 -41.425781 57.617188 -35.9375 64.734375 -32 C 71.847656 -28.0625 79.960938 -26.09375 89.078125 -26.09375 C 98.742188 -26.09375 107.441406 -28.164062 115.171875 -32.3125 Z M 115.171875 -74.78125 "/></g></g></g></svg>